<svg xmlns="http://www.w3.org/2000/svg" width="127" height="95" viewBox="0 0 127 95" fill="none">
  <path d="M70.6429 65.2977C70.6429 50.8332 83.2215 39.1073 98.7381 39.1073C114.255 39.1073 126.833 50.8331 126.833 65.2977C126.833 79.7623 114.255 91.4882 98.7381 91.4882C83.2215 91.4882 70.6429 79.7623 70.6429 65.2977Z" fill="white"/>
  <path d="M54 76.8452C54 66.8515 62.7411 58.75 73.5238 58.75C84.3064 58.75 93.0475 66.8515 93.0475 76.8452C93.0475 86.8389 84.3065 94.9404 73.5238 94.9404C62.7411 94.9404 54 86.8389 54 76.8452Z" fill="white"/>
  <path d="M17 68.7502C17 54.5486 27.8731 43.0359 41.2857 43.0359C54.6983 43.0359 65.5713 54.5486 65.5713 68.7502C65.5713 82.9517 54.6983 94.4644 41.2857 94.4644C27.8731 94.4644 17 82.9517 17 68.7502Z" fill="white"/>
  <path d="M0.16687 55.298C0.166869 40.0444 11.0399 27.679 24.4525 27.679C37.8651 27.679 48.7382 40.0444 48.7382 55.298C48.7382 70.5515 37.8651 82.917 24.4525 82.917C11.0399 82.917 0.166871 70.5515 0.16687 55.298Z" fill="white"/>
  <path d="M23.9762 27.6786C23.9762 12.425 35.7021 0.0595716 50.1667 0.0595703C64.6312 0.059569 76.3571 12.425 76.3571 27.6786C76.3571 42.9321 64.6312 55.2976 50.1667 55.2976C35.7021 55.2976 23.9762 42.9321 23.9762 27.6786Z" fill="white"/>
  <path d="M68.7381 39.5834C68.7381 28.8008 76.8396 20.0597 86.8333 20.0597C96.827 20.0597 104.929 28.8008 104.929 39.5834C104.929 50.3661 96.8271 59.1072 86.8334 59.1072C76.8396 59.1072 68.7381 50.3661 68.7381 39.5834Z" fill="white"/>
  <path d="M37.3096 59.107C37.3096 44.9054 47.3299 33.3928 59.6905 33.3928C72.0512 33.3928 82.0714 44.9054 82.0714 59.107C82.0715 73.3086 72.0512 84.8213 59.6905 84.8213C47.3299 84.8213 37.3096 73.3086 37.3096 59.107Z" fill="white"/>
</svg>